<?xml version="1.0" encoding="utf-8"?>
<!-- Generator: Adobe Illustrator 26.0.3, SVG Export Plug-In . SVG Version: 6.00 Build 0)  -->
<svg version="1.0" id="katman_1" xmlns="http://www.w3.org/2000/svg" xmlns:xlink="http://www.w3.org/1999/xlink" x="0px" y="0px"
	 viewBox="0 0 33.7 21.9" style="enable-background:new 0 0 33.7 21.9;" xml:space="preserve">
<style type="text/css">
	.st0{fill:#FFFFFF;}
	.st1{fill:#949494;}
	.st2{fill:url(#SVGID_1_);}
</style>
<circle class="st0" cx="19.3" cy="10.4" r="2"/>
<circle class="st0" cx="22.6" cy="16.2" r="1.6"/>
<circle class="st0" cx="16.4" cy="15.2" r="1.3"/>
<circle class="st0" cx="15.5" cy="5" r="1.6"/>
<circle class="st0" cx="11" cy="11.1" r="1.3"/>
<polygon class="st1" points="22.9,15.9 19.6,10.1 19.3,10.3 19.5,10.1 15.8,4.7 15.1,5.2 18.4,10 11,10.6 11.1,11.4 18.4,10.8 
	16,14.9 16.7,15.3 19.2,11.1 22.2,16.3 "/>
<path class="st1" d="M25.4,3.2L25.4,3.2c0-0.4-0.3-0.7-0.7-0.7c0,0,0,0,0,0h-3.8c-0.2,0-0.4,0.2-0.4,0.4v1.4c0,0.2,0.2,0.4,0.4,0.4
	h2.4v2.3c0,0.2,0.2,0.4,0.4,0.4H25c0.2,0,0.4-0.2,0.4-0.4L25.4,3.2L25.4,3.2z"/>
<path class="st1" d="M12.9,17.3h-2.4V15c0-0.2-0.2-0.4-0.4-0.4H8.7c-0.2,0-0.4,0.2-0.4,0.4v3.7l0,0c0,0.4,0.3,0.7,0.7,0.7h3.8
	c0.2,0,0.4-0.2,0.4-0.4l0,0v-1.4C13.2,17.5,13.1,17.3,12.9,17.3z"/>
<linearGradient id="SVGID_1_" gradientUnits="userSpaceOnUse" x1="16.9854" y1="3.116" x2="16.7054" y2="30.026" gradientTransform="matrix(1 0 0 -1 0 23.8519)">
	<stop  offset="0" style="stop-color:#198AB3"/>
	<stop  offset="0" style="stop-color:#198AB3"/>
	<stop  offset="9.000000e-02" style="stop-color:#22A5CB"/>
	<stop  offset="0.19" style="stop-color:#29BADE"/>
	<stop  offset="0.29" style="stop-color:#2EC9EB"/>
	<stop  offset="0.42" style="stop-color:#31D1F3"/>
	<stop  offset="0.62" style="stop-color:#32D4F5"/>
</linearGradient>
<path class="st2" d="M19.3,8.4c1.1,0,2,0.9,2,2s-0.9,2-2,2c-1.1,0-2-0.9-2-2c0,0,0,0,0,0C17.3,9.3,18.2,8.4,19.3,8.4z M13.9,5
	c0,0.9,0.7,1.7,1.7,1.7c0.9,0,1.7-0.7,1.7-1.7s-0.7-1.7-1.7-1.7c0,0,0,0,0,0C14.6,3.4,13.9,4.1,13.9,5z M9.7,11.1
	c0,0.7,0.6,1.3,1.3,1.3c0.7,0,1.3-0.6,1.3-1.3c0-0.7-0.6-1.3-1.3-1.3C10.3,9.8,9.7,10.4,9.7,11.1L9.7,11.1z M15.1,15.2
	c0,0.7,0.6,1.3,1.3,1.3s1.3-0.6,1.3-1.3c0-0.7-0.6-1.3-1.3-1.3c0,0,0,0,0,0C15.7,13.8,15.1,14.4,15.1,15.2
	C15.1,15.1,15.1,15.2,15.1,15.2z M21,16.2c0,0.9,0.7,1.6,1.5,1.6c0.9,0,1.6-0.7,1.6-1.5c0-0.9-0.7-1.6-1.5-1.6c0,0,0,0,0,0
	C21.7,14.7,21,15.4,21,16.2C21,16.2,21,16.2,21,16.2z"/>
</svg>
